# xmcd
#
# Track frame offsets:
#	150
#	41859
#	75609
#	90224
#	119903
#	128111
#	146247
#	171542
#	196793
#	230451
#	254564
#	269779
#	297740
#	312482
#
# Disc length: 4400 seconds
#
# Revision: 1
# Processed by: cddbd v1.5.2PL0 Copyright (c) Steve Scherf et al.
# Submitted via: audiograbber 1.83.01
#
DISCID=e3112e0e
DTITLE=Grateful Dead - 71-11-17 Albuquerque Civic Auditorium, Albuquerque NM
DYEAR=1900
DGENRE=
TTITLE0=Truckin'
TTITLE1=Sugaree
TTITLE2=BIODTL
TTITLE3=Tennessee Jed
TTITLE4=El Paso
TTITLE5=Big Railroad Blues
TTITLE6=Jack Straw
TTITLE7=Deal
TTITLE8=Playing In The Band
TTITLE9=Cumberland Blues
TTITLE10=Tuning
TTITLE11=Me and Bobby McGee
TTITLE12=You Win Again
TTITLE13=Mexicali Blues
EXTD=
EXTT0=
EXTT1=
EXTT2=
EXTT3=
EXTT4=
EXTT5=
EXTT6=
EXTT7=
EXTT8=
EXTT9=
EXTT10=
EXTT11=
EXTT12=
EXTT13=
PLAYORDER=
